<?xml version="1.0" standalone="no"?>
<!DOCTYPE svg PUBLIC "-//W3C//DTD SVG 20010904//EN"
 "http://www.w3.org/TR/2001/REC-SVG-20010904/DTD/svg10.dtd">
<svg version="1.0" xmlns="http://www.w3.org/2000/svg"
 width="512.000000pt" height="512.000000pt" viewBox="0 0 512.000000 512.000000"
 preserveAspectRatio="xMidYMid meet">
<metadata>
Created by potrace 1.11, written by Peter Selinger 2001-2013
</metadata>
<g transform="translate(0.000000,512.000000) scale(0.100000,-0.100000)"
fill="#000000" stroke="none">
<path d="M2410 4967 c-3 -3 -44 -7 -91 -10 -190 -14 -456 -80 -657 -163 -359
-148 -678 -381 -924 -674 -76 -91 -226 -307 -263 -380 -111 -218 -184 -400
-220 -550 -12 -50 -34 -162 -40 -200 -4 -24 -8 -47 -10 -50 -17 -28 -26 -455
-12 -595 7 -78 8 -84 38 -240 21 -109 99 -362 140 -453 58 -129 170 -333 221
-402 195 -262 307 -379 540 -565 9 -7 56 -40 105 -73 157 -105 328 -193 498
-256 73 -27 298 -90 356 -100 199 -35 248 -39 449 -40 251 -1 320 6 575 58 49
10 266 79 325 103 205 85 434 218 605 353 117 92 319 300 408 420 43 58 85
113 93 123 8 9 14 19 14 22 0 3 19 35 42 72 36 60 128 244 171 343 17 40 67
196 92 284 25 90 46 212 65 371 8 72 6 453 -3 491 -3 12 -8 45 -12 75 -46 379
-235 814 -499 1149 -33 41 -116 131 -185 200 -69 69 -124 129 -123 133 1 5 -1
6 -6 3 -4 -2 -28 11 -52 31 -184 146 -401 271 -619 358 -131 52 -344 112 -456
129 -22 4 -54 9 -72 12 -17 3 -46 8 -65 10 -51 6 -423 15 -428 11z m193 -1225
l146 -143 -337 -337 c-207 -207 -344 -352 -355 -375 -25 -52 -15 -107 27 -150
18 -17 110 -106 206 -197 95 -91 186 -177 202 -193 58 -55 67 -122 25 -182
-12 -16 -70 -78 -130 -138 l-109 -107 -71 67 c-40 38 -106 100 -147 139 -41
39 -109 102 -150 141 -41 39 -91 86 -110 103 -19 18 -91 86 -160 150 -69 65
-137 129 -152 143 -65 61 -84 176 -42 267 25 52 26 54 334 350 129 124 315
305 415 402 229 224 235 229 250 215 7 -7 78 -76 158 -155z m352 -602 c53 -49
229 -213 364 -338 25 -24 104 -98 175 -165 71 -67 137 -129 146 -137 53 -47
74 -158 44 -239 -21 -59 -27 -66 -329 -356 -294 -283 -356 -344 -522 -507
l-143 -140 -121 119 c-66 65 -138 135 -159 156 l-39 38 338 338 c320 320 371
379 371 429 0 52 -14 69 -181 226 -206 193 -303 292 -315 321 -28 67 -7 103
150 259 l109 108 26 -28 c15 -16 53 -54 86 -84z"/>
</g>
</svg>
